<svg width="36" height="36" viewBox="0 0 36 36" fill="none" xmlns="http://www.w3.org/2000/svg">
<path d="M8.82104 25.3658L11.5277 22.6592L14.2343 25.3658L11.5277 28.0725L8.82104 25.3658Z" fill="#10152E"/>
<path d="M22.7444 11.4424L25.451 8.73584L28.1575 11.4424L25.451 14.1491L22.7444 11.4424Z" fill="#10152E"/>
<path d="M22.5885 17.0115L25.3171 14.283C25.7205 14.821 26.059 15.3681 26.3323 15.9244C26.8539 16.9854 27.1477 18.0407 27.2136 19.0897C27.2735 20.1329 27.1087 21.1432 26.7189 22.1203C26.3354 23.0915 25.7298 23.9909 24.9024 24.8181C24.0812 25.6395 23.1819 26.245 22.2046 26.6346C21.2335 27.0183 20.2233 27.1832 19.174 27.1292C18.119 27.0693 17.0578 26.7816 15.9907 26.266C15.4346 25.9926 14.8874 25.6542 14.3494 25.2507L17.0778 22.5222C17.2713 22.6638 17.4635 22.7936 17.6544 22.9116C18.3078 23.3134 18.9404 23.5742 19.5518 23.694C20.1573 23.808 20.7299 23.7809 21.2694 23.6131C21.809 23.4452 22.3066 23.1334 22.7623 22.6779C23.2178 22.2222 23.5296 21.7247 23.6975 21.185C23.8654 20.6454 23.8893 20.0759 23.7694 19.4764C23.6436 18.871 23.3797 18.2414 22.9781 17.5879C22.86 17.397 22.7302 17.2048 22.5885 17.0115Z" fill="#6F8F2F"/>
<path d="M22.6759 11.5108C21.9151 10.8539 21.1375 10.3346 20.3431 9.95313C19.282 9.43156 18.2239 9.14078 17.1687 9.08085C16.1196 9.0149 15.1064 9.17677 14.1292 9.56645C13.158 9.95013 12.2587 10.5556 11.4314 11.383C10.61 12.2043 10.0045 13.1036 9.61484 14.0808C9.23114 15.052 9.06926 16.0651 9.12922 17.1204C9.19517 18.1694 9.48893 19.2247 10.0105 20.2857C10.3965 21.0757 10.9185 21.8505 11.5767 22.6101L14.3002 19.8865C13.9221 19.4504 13.6043 19.0231 13.3468 18.6042C12.9451 17.9507 12.6844 17.3242 12.5644 16.7246C12.4505 16.1192 12.4775 15.5526 12.6454 15.025C12.8132 14.4855 13.125 13.9879 13.5806 13.5322C14.0363 13.0766 14.5339 12.7649 15.0734 12.597C15.6069 12.4231 16.1764 12.3932 16.782 12.5071C17.3876 12.621 18.017 12.8788 18.6705 13.2805C19.0894 13.5379 19.5167 13.8557 19.9528 14.2338L22.6759 11.5108Z" fill="#6F8F2F"/>
<path fill-rule="evenodd" clip-rule="evenodd" d="M18 36C27.9411 36 36 27.9411 36 18C36 8.05887 27.9411 0 18 0C8.05887 0 0 8.05887 0 18C0 27.9411 8.05887 36 18 36ZM32.7692 18C32.7692 26.1568 26.1568 32.7692 18 32.7692C9.84318 32.7692 3.23077 26.1568 3.23077 18C3.23077 9.84318 9.84318 3.23077 18 3.23077C26.1568 3.23077 32.7692 9.84318 32.7692 18Z" fill="#6F8F2F"/>
</svg>
